<?xml version="1.0" encoding="UTF-8" standalone="no"?>
<!-- Generator: Adobe Illustrator 19.1.0, SVG Export Plug-In . SVG Version: 6.00 Build 0)  -->

<svg
   xmlns:dc="http://purl.org/dc/elements/1.1/"
   xmlns:cc="http://creativecommons.org/ns#"
   xmlns:rdf="http://www.w3.org/1999/02/22-rdf-syntax-ns#"
   xmlns:svg="http://www.w3.org/2000/svg"
   xmlns="http://www.w3.org/2000/svg"
   xmlns:sodipodi="http://sodipodi.sourceforge.net/DTD/sodipodi-0.dtd"
   xmlns:inkscape="http://www.inkscape.org/namespaces/inkscape"
   version="1.1"
   id="Layer_1"
   x="0px"
   y="0px"
   viewBox="0 0 120 120"
   style="enable-background:new 0 0 120 120;"
   xml:space="preserve"
   inkscape:version="0.91 r13725"
   sodipodi:docname="icon.svg"><metadata
     id="metadata23"><rdf:RDF><cc:Work
         rdf:about=""><dc:format>image/svg+xml</dc:format><dc:type
           rdf:resource="http://purl.org/dc/dcmitype/StillImage" /><dc:title></dc:title></cc:Work></rdf:RDF></metadata><defs
     id="defs21" /><sodipodi:namedview
     pagecolor="#ffffff"
     bordercolor="#666666"
     borderopacity="1"
     objecttolerance="10"
     gridtolerance="10"
     guidetolerance="10"
     inkscape:pageopacity="0"
     inkscape:pageshadow="2"
     inkscape:window-width="1399"
     inkscape:window-height="732"
     id="namedview19"
     showgrid="false"
     inkscape:zoom="3.6203867"
     inkscape:cx="81.033084"
     inkscape:cy="45.69198"
     inkscape:window-x="378"
     inkscape:window-y="161"
     inkscape:window-maximized="0"
     inkscape:current-layer="Layer_1" /><style
     type="text/css"
     id="style3">
	.st0{fill:#414042;}
	.st1{fill:#769CD2;}
	.st2{fill:#26B8B0;}
	.st3{fill:#9C82BC;}
	.st4{fill:#676767;}
</style><g
     transform="matrix(0.61368107,0,0,0.69468401,4.5447382,5.066181)"
     id="g3093"><path
       style="fill:none;stroke:#000000;stroke-width:3.52500272;stroke-linecap:butt;stroke-linejoin:miter;stroke-miterlimit:4;stroke-dasharray:none;stroke-opacity:1"
       d="m 14.396106,-3.7161085 8.124766,62.4790135 c -32.3916105,8.086954 -32.1639131,53.051595 13.381567,53.432215 30.102474,5.15231 20.271336,22.85529 7.14775,23.14238 -17.196106,1.11194 -17.510999,-3.28586 -20.611164,-11.92287 l -25.338533,-8.89874 c 4.7363857,35.7099 28.822628,54.98454 69.09463,27.97191 l 0,18.5122 24.153495,-7.36103 -2.275446,-43.06127 c 18.299519,-1.35536 28.584329,-11.176072 22.999999,43.69059 l 20.7561,2.80488 c 0.0937,-40.16334 4.95776,-71.877716 -43.195124,-61.707316 L 87.512195,61.146341 c 9.176849,19.75124 24.191535,29.758419 45.325635,30.079122 L 143.11187,154.1971 169.36433,143.61259 157.19935,86.461431 C 193.07187,80.638155 199.31565,2.098352 131.26829,0.56097561 116.88091,0.76995999 104.89676,5.7853933 96.487805,17.95122 96.640831,-0.92021045 66.635339,-8.3765605 58.902439,13.463414 56.56753,30.323077 71.153359,40.349647 88.073171,34.219512 l -1.682927,10.097561 -19.634146,-0.560975 0,27.487804 C 62.089343,63.748143 55.330054,60.437453 47.682927,58.902439 L 46.560976,0.56097561 Z"
       id="path3068"
       inkscape:connector-curvature="0"
       sodipodi:nodetypes="cccccccccccccccccccccccccccc" /><path
       style="fill:none;stroke:#000000;stroke-width:3.52500272;stroke-linecap:butt;stroke-linejoin:miter;stroke-miterlimit:4;stroke-dasharray:none;stroke-opacity:1"
       d="M 66.756098,86.390244 51.048781,83.02439 C 44.828057,63.775285 21.197457,69.554141 20.195122,85.268293 c 5.15907,14.228427 31.843085,6.470281 46,20.756097 z"
       id="path3089"
       inkscape:connector-curvature="0"
       sodipodi:nodetypes="ccccc" /><path
       style="fill:none;stroke:#000000;stroke-width:3.52500272;stroke-linecap:butt;stroke-linejoin:miter;stroke-miterlimit:4;stroke-dasharray:none;stroke-opacity:1"
       d="M 148.36866,70.193138 C 96.856545,54.870008 151.03263,18.24635 160.05453,60.793246 180.38542,32.274063 142.27428,5.9693519 114.43903,24.682927 97.619246,38.38337 102.98249,76.946039 148.36866,70.193138 Z"
       id="path3091"
       inkscape:connector-curvature="0"
       sodipodi:nodetypes="cccc" /></g></svg>